<?xml version="1.0" standalone="no"?>
<!DOCTYPE svg PUBLIC "-//W3C//DTD SVG 20010904//EN"
 "http://www.w3.org/TR/2001/REC-SVG-20010904/DTD/svg10.dtd">
<svg version="1.0" xmlns="http://www.w3.org/2000/svg"
 width="920.000000pt" height="512.000000pt" viewBox="0 0 920.000000 512.000000"
 preserveAspectRatio="xMidYMid meet">

<g transform="translate(0.000000,512.000000) scale(0.100000,-0.100000)"
fill="#000000" stroke="none">
<path d="M3581 4784 c-205 -55 -388 -242 -436 -445 -12 -53 -15 -157 -15 -593
0 -513 1 -530 20 -561 53 -85 181 -84 237 2 17 25 18 68 23 563 l5 535 28 53
c34 65 93 123 155 154 l47 23 708 3 707 2 0 -433 c0 -481 1 -492 67 -627 26
-54 56 -95 107 -146 78 -77 134 -114 235 -153 l66 -26 473 -3 472 -3 0 -1079
c0 -1064 0 -1080 -21 -1134 -27 -73 -96 -148 -167 -183 -55 -27 -64 -28 -252
-33 -218 -6 -234 -10 -265 -77 -34 -71 -5 -151 67 -189 39 -20 333 -19 436 2
224 46 410 224 467 449 22 87 23 2421 1 2463 -14 26 -1325 1339 -1414 1415
l-42 37 -828 -1 c-692 0 -836 -3 -881 -15z m2372 -1372 c-329 -2 -344 -1 -399
19 -70 27 -146 94 -182 164 l-27 50 -3 360 -3 360 478 -475 478 -475 -342 -3z"/>
<path d="M4190 3123 c-14 -5 -204 -152 -1315 -1017 -270 -211 -425 -338 -434
-357 -20 -39 -5 -95 32 -123 27 -20 41 -21 378 -24 l349 -3 0 -463 c0 -519 0
-519 71 -600 22 -25 65 -57 97 -73 l57 -28 815 0 815 0 49 24 c63 31 116 84
147 147 l24 49 3 475 3 475 325 -3 c207 -2 339 1 364 8 48 13 75 49 75 101 0
45 -14 61 -120 143 -44 34 -416 324 -827 644 -411 320 -764 593 -784 607 -35
24 -88 31 -124 18z"/>
</g>
</svg>
